<svg width="61" height="48" viewBox="0 0 61 48" fill="none" xmlns="http://www.w3.org/2000/svg">
<path d="M12.5135 0C9.07656 0 6.53327 3.00824 6.64715 6.27059C6.75656 9.40471 6.61444 13.4642 5.59256 16.7746C4.56762 20.0946 2.83397 22.1976 0.00244141 22.4678V25.5162C2.83397 25.7864 4.56762 27.8894 5.59256 31.2096C6.61444 34.52 6.75656 38.5791 6.64715 41.7134C6.53327 44.9753 9.07656 47.984 12.514 47.984H47.7311C51.1683 47.984 53.7109 44.9758 53.597 41.7134C53.4879 38.5793 53.6297 34.52 54.6516 31.2096C55.6773 27.8896 57.4062 25.7861 60.2377 25.5162V22.4678C57.4062 22.1976 55.6773 20.0946 54.6519 16.7746C53.6297 13.4647 53.4879 9.40494 53.597 6.27059C53.7109 3.00871 51.1683 0 47.7311 0H12.513H12.5135ZM40.8401 29.5372C40.8401 34.0294 37.4895 36.7536 31.929 36.7536H22.4631C22.1924 36.7536 21.9328 36.646 21.7414 36.4545C21.55 36.2631 21.4424 36.0034 21.4424 35.7327V12.2513C21.4424 12.1172 21.4688 11.9844 21.5201 11.8605C21.5714 11.7366 21.6466 11.6241 21.7414 11.5292C21.8362 11.4344 21.9487 11.3592 22.0726 11.3079C22.1965 11.2565 22.3293 11.2301 22.4634 11.2301H31.8749C36.5114 11.2301 39.5542 13.7419 39.5542 17.5979C39.5542 20.3045 37.5071 22.7275 34.8994 23.1518V23.2932C38.4497 23.6826 40.8401 26.1412 40.8401 29.5372ZM30.8966 14.4666H25.4996V22.0901H30.0455C33.5594 22.0901 35.4973 20.6751 35.4973 18.1456C35.4973 15.7755 33.8307 14.4666 30.8966 14.4666ZM25.4996 25.1151V33.5162H31.0954C34.7537 33.5162 36.6921 32.0482 36.6921 29.2892C36.6921 26.5296 34.6999 25.1146 30.8601 25.1146H25.4996V25.1151Z" fill="#7E13F8"/>
</svg>
