<svg width="41" height="48" viewBox="0 0 41 48" fill="none" xmlns="http://www.w3.org/2000/svg">
<g clip-path="url(#clip0_2_4)">
<path d="M40.8269 15.4844L39.3438 11.4817L40.3644 9.18538C40.492 8.88239 40.4282 8.54751 40.2049 8.30831L37.4142 5.48571C36.1863 4.25781 34.3684 3.82724 32.7259 4.40133L31.9445 4.67243L27.6707 0.0478405L20.4468 0H20.3989L13.1272 0.0637874L8.86938 4.72027L8.10393 4.44917C6.44545 3.85914 4.61157 4.2897 3.38366 5.5495L0.545122 8.41993C0.35376 8.6113 0.30592 8.88239 0.401601 9.1216L1.47004 11.5136L0.00292969 15.5163L0.95974 19.1362L5.29728 35.6093C5.79163 37.507 6.93981 39.1655 8.55044 40.3136C8.55044 40.3136 13.8129 44.0292 18.9956 47.394C19.4581 47.697 19.9365 47.9043 20.4468 47.9043C20.9571 47.9043 21.4355 47.697 21.8979 47.394C27.7345 43.5668 32.3431 40.2977 32.3431 40.2977C33.9378 39.1495 35.086 37.491 35.5803 35.5934L39.886 19.1203L40.8269 15.4844Z" fill="#F15A22"/>
<path opacity="0.15" d="M5.50459 36.311L0.00292969 15.8671L1.61356 11.8644L0.497282 8.89833L3.1604 6.18737C4.03748 5.40597 5.75974 5.13488 6.55708 5.59734L10.7192 7.98936L16.1411 9.24916L20.3671 7.49501L20.7179 43.806C20.6541 49.0365 20.989 48.4784 17.1458 46.0066L7.65741 39.6439C6.63682 38.6711 5.85542 37.5708 5.50459 36.311Z" fill="url(#paint0_linear_2_4)"/>
<path opacity="0.4" d="M32.2475 40.2253L24.1784 45.7429C21.9298 46.9708 20.8455 48.1828 20.67 47.5927C20.5265 47.1303 20.6382 45.7748 20.5903 43.6698L20.4946 8.15617C20.5106 7.80534 20.7498 7.21531 21.1644 7.2791L25.2787 8.52295L31.2109 7.59803L35.1338 4.71165C35.5485 4.39272 36.1544 4.42461 36.5372 4.79139L40.0455 8.14023C40.3644 8.47511 40.3803 9.12893 40.189 9.54355L39.2162 11.3455L40.8269 15.5077L35.2774 36.1429C34.4162 38.7103 33.2043 39.3801 32.2475 40.2253Z" fill="url(#paint1_linear_2_4)"/>
<path d="M21.3719 29.4699C21.1806 29.3902 20.9733 29.3264 20.9095 29.3264H20.3992C20.3354 29.3264 20.1281 29.3902 19.9367 29.4699L17.8636 30.3311C17.6723 30.4108 17.3533 30.5543 17.162 30.65L14.0364 32.2766C13.845 32.3723 13.8291 32.5477 14.0045 32.6753L16.7633 34.6208C16.9387 34.7483 17.2098 34.9557 17.3693 35.0992L18.5972 36.1517C18.7567 36.2952 19.0118 36.5184 19.1713 36.662L20.3513 37.7145C20.5108 37.858 20.766 37.858 20.9254 37.7145L22.1374 36.662C22.2969 36.5184 22.552 36.2952 22.7115 36.1517L23.9394 35.0832C24.0989 34.9397 24.37 34.7324 24.5454 34.6048L27.3042 32.6434C27.4796 32.5158 27.4636 32.3404 27.2723 32.2447L24.1467 30.65C23.9553 30.5543 23.6364 30.4108 23.445 30.3311L21.3719 29.4699Z" fill="white"/>
<path d="M36.3319 16.1951C36.3957 15.9878 36.3957 15.9081 36.3957 15.9081C36.3957 15.7008 36.3798 15.3499 36.3479 15.1426L36.1884 14.6802C36.0927 14.4888 35.9333 14.1858 35.8057 14.0104L34.0037 11.3473C33.8921 11.1719 33.6847 10.9008 33.5412 10.7254L31.213 7.80709C31.0854 7.64762 30.9578 7.5041 30.9419 7.52004H30.91C30.91 7.52004 30.7346 7.55194 30.5273 7.58383L26.9711 8.28549C26.7638 8.33333 26.4289 8.39712 26.2216 8.42901L26.1578 8.44496C25.9505 8.47685 25.6156 8.46091 25.4083 8.39712L22.4263 7.44031C22.219 7.37652 21.8841 7.28084 21.6927 7.233C21.6927 7.233 21.0867 7.08948 20.5924 7.10542C20.098 7.10542 19.4921 7.233 19.4921 7.233C19.2847 7.28084 18.9499 7.37652 18.7585 7.44031L15.7764 8.39712C15.5691 8.46091 15.2342 8.47685 15.0269 8.44496L14.9632 8.42901C14.7558 8.39712 14.421 8.31738 14.2136 8.28549L10.6256 7.61572C10.4183 7.56788 10.2429 7.55194 10.2429 7.55194H10.211C10.195 7.55194 10.0675 7.67951 9.9399 7.83898L7.61166 10.7573C7.48408 10.9167 7.27677 11.2038 7.1492 11.3792L5.3472 14.0423C5.23558 14.2177 5.06016 14.5207 4.96448 14.7121L4.80501 15.1745C4.77312 15.3818 4.74122 15.7327 4.75717 15.94C4.75717 15.94 4.75717 16.0038 4.82096 16.227C4.93259 16.6097 5.20368 16.9606 5.20368 16.9606C5.33126 17.12 5.57046 17.3911 5.71398 17.5347L10.9924 23.1479C11.1359 23.3074 11.1837 23.5945 11.104 23.7858L10.0037 26.3852C9.92395 26.5765 9.908 26.8955 9.98774 27.1028L10.2907 27.9161C10.5459 28.6018 10.9764 29.2078 11.5505 29.6702L12.619 30.5313C12.7784 30.6589 13.0655 30.7068 13.2568 30.6111L16.6376 29.0004C16.8289 28.9048 17.116 28.7134 17.2754 28.5699L19.6994 26.3852C20.0502 26.0662 20.0661 25.524 19.7472 25.1732L14.6602 21.7446C14.4847 21.633 14.421 21.3778 14.5166 21.1865L16.7492 16.9765C16.8449 16.7852 16.8608 16.4822 16.7811 16.2908L16.51 15.6689C16.4303 15.4775 16.1911 15.2543 15.9997 15.1745L9.44554 12.7187C9.25418 12.639 9.25418 12.5592 9.46149 12.5433L13.6874 12.1446C13.8947 12.1287 14.2296 12.1606 14.4369 12.2084L18.2004 13.2609C18.4077 13.3247 18.5352 13.532 18.5034 13.7393L17.1957 20.8994C17.1638 21.1068 17.1638 21.3938 17.2117 21.5533C17.2595 21.7127 17.4668 21.8563 17.6741 21.9041L20.2894 22.4622C20.4967 22.5101 20.8316 22.5101 21.0389 22.4622L23.4788 21.9041C23.6861 21.8563 23.8934 21.6968 23.9412 21.5533C23.9891 21.4097 24.005 21.1068 23.9572 20.8994L22.6655 13.7393C22.6336 13.532 22.7612 13.3087 22.9685 13.2609L26.7319 12.2084C26.9392 12.1446 27.2741 12.1287 27.4814 12.1446L31.7073 12.5433C31.9146 12.5592 31.9306 12.639 31.7233 12.7187L25.1691 15.2064C24.9778 15.2862 24.7386 15.4935 24.6588 15.7008L24.3877 16.3227C24.308 16.5141 24.308 16.833 24.4196 17.0084L26.6681 21.2184C26.7638 21.4097 26.7 21.6489 26.5246 21.7765L21.4376 25.221C21.1027 25.5559 21.1346 26.1141 21.4854 26.433L23.9093 28.6177C24.0688 28.7612 24.3558 28.9526 24.5472 29.0323L27.9439 30.643C28.1352 30.7386 28.4223 30.6908 28.5818 30.5632L29.6502 29.6862C30.2243 29.2237 30.6548 28.6177 30.894 27.932L31.197 27.1187C31.2768 26.9274 31.2608 26.5925 31.1811 26.4011L30.0808 23.8018C30.001 23.6104 30.0489 23.3234 30.1924 23.1639L35.4708 17.5506C35.6143 17.3911 35.8376 17.136 35.9811 16.9765C35.9492 16.9287 36.2362 16.5778 36.3319 16.1951Z" fill="white"/>
</g>
<defs>
<linearGradient id="paint0_linear_2_4" x1="0.00292969" y1="2128.99" x2="2073.51" y2="2128.99" gradientUnits="userSpaceOnUse">
<stop stop-color="white"/>
<stop offset="0.1413" stop-color="white" stop-opacity="0.958"/>
<stop offset="1" stop-color="white" stop-opacity="0.7"/>
</linearGradient>
<linearGradient id="paint1_linear_2_4" x1="19.7017" y1="2166.41" x2="2053.72" y2="2166.41" gradientUnits="userSpaceOnUse">
<stop stop-color="#F1F1F2"/>
<stop offset="0.09191" stop-color="#E4E5E6"/>
<stop offset="0.2357" stop-color="#D9DADB"/>
<stop offset="0.438" stop-color="#D2D4D5"/>
<stop offset="1" stop-color="#D0D2D3"/>
</linearGradient>
<clipPath id="clip0_2_4">
<rect width="40.83" height="48" fill="white"/>
</clipPath>
</defs>
</svg>
