<svg width="165" height="48" viewBox="0 0 165 48" fill="none" xmlns="http://www.w3.org/2000/svg">
<path d="M1.0734 37.2496V18.8933H23.9923V17.8196H1.0734V1.0734H25.4413V0H0V38.323H25.6558V37.2496H1.0734ZM46.3206 10.7346L36.8205 23.2407L27.5346 10.7349H26.1391L36.1762 24.0461L25.1726 38.3227H26.4609L36.8199 24.8505L47.2326 38.3227H48.5744L37.5176 24.0454L47.6083 10.7343H46.3203L46.3206 10.7346ZM51.7952 47.7697V30.5944H51.9025C52.5468 33.0991 53.817 35.1118 55.7135 36.6327C57.61 38.1532 60.0251 38.9138 62.9592 38.9138C64.8557 38.9138 66.5377 38.5292 68.0047 37.7599C69.4718 36.9906 70.6972 35.9439 71.6814 34.6199C72.6652 33.2959 73.4168 31.7573 73.9358 30.0039C74.4544 28.2507 74.7141 26.4077 74.7141 24.4758C74.7141 22.4002 74.4454 20.4857 73.9087 18.7326C73.372 16.9791 72.5937 15.4583 71.5741 14.1703C70.5542 12.882 69.3197 11.8798 67.8704 11.1647C66.4214 10.4489 64.7842 10.091 62.9592 10.091C61.5637 10.091 60.2667 10.2968 59.068 10.7082C57.8693 11.1199 56.8049 11.701 55.8746 12.4526C54.9388 13.21 54.1242 14.1059 53.4591 15.1094C52.7794 16.1293 52.2604 17.2475 51.9025 18.4642H51.7952V10.7346H50.7218V47.7697H51.7952ZM62.9592 37.8936C59.596 37.8936 56.8942 36.7397 54.8547 34.4318C52.8151 32.1239 51.7952 28.8048 51.7952 24.4752C51.7952 22.686 52.0458 20.9863 52.5468 19.3762C53.0477 17.7661 53.7722 16.3525 54.7203 15.1361C55.6687 13.9194 56.8407 12.9532 58.2359 12.2377C59.6315 11.5219 61.2061 11.164 62.9592 11.164C64.7485 11.164 66.3141 11.5219 67.6558 12.2377C68.9976 12.9532 70.1071 13.9284 70.9836 15.1628C71.8602 16.3973 72.5222 17.8109 72.9697 19.403C73.4168 20.9953 73.6404 22.686 73.6404 24.4752C73.6404 26.0856 73.4348 27.687 73.0231 29.279C72.6118 30.8714 71.9765 32.3027 71.1176 33.5733C70.2591 34.8432 69.159 35.8808 67.8169 36.6862C66.4748 37.4912 64.8557 37.8936 62.9592 37.8936ZM80.6181 38.323V22.704C80.6181 21.2012 80.8326 19.7338 81.2624 18.3028C81.6915 16.8715 82.3535 15.61 83.2481 14.5189C84.1427 13.4274 85.2786 12.5686 86.6564 11.9423C88.0339 11.3161 89.6711 11.0568 91.5676 11.164V10.0906C89.9214 10.0552 88.4814 10.2337 87.2469 10.6273C86.0121 11.021 84.9478 11.5577 84.0532 12.2377C83.1585 12.9175 82.4431 13.7135 81.9064 14.6261C81.3701 15.5373 80.9721 16.5231 80.7254 17.5512H80.6181V10.7346H79.5447V38.3233L80.6181 38.323ZM92.9093 24.7435H115.989C116.061 22.847 115.873 21.0224 115.425 19.2689C114.978 17.5155 114.263 15.9589 113.279 14.5994C112.295 13.2396 111.024 12.1482 109.468 11.3251C107.911 10.502 106.059 10.0906 103.913 10.0906C102.374 10.0906 100.871 10.4128 99.4038 11.0571C97.9368 11.701 96.6485 12.6401 95.5393 13.8746C94.4302 15.109 93.5356 16.6209 92.8558 18.4104C92.1761 20.1993 91.8359 22.2388 91.8359 24.529C91.8359 26.5685 92.0685 28.474 92.5337 30.2452C92.9989 32.0163 93.7144 33.5552 94.6805 34.8612C95.6469 36.1672 96.8904 37.1781 98.4109 37.8936C99.9315 38.6094 101.765 38.9493 103.913 38.9135C107.061 38.9135 109.709 38.0276 111.856 36.2567C114.003 34.4853 115.273 31.9896 115.667 28.7691H114.594C114.129 31.8108 112.939 34.0919 111.024 35.6125C109.11 37.1333 106.704 37.8936 103.805 37.8936C101.837 37.8936 100.173 37.5537 98.8133 36.874C97.4538 36.1943 96.3444 35.2636 95.4855 34.0829C94.627 32.9019 93.9917 31.5154 93.5804 29.923C93.1686 28.331 92.9451 26.6042 92.9093 24.7435ZM114.916 23.6701H92.9096C93.0166 21.7379 93.3745 20.0025 93.9827 18.4639C94.5912 16.925 95.3873 15.61 96.3714 14.5189C97.3553 13.4274 98.5005 12.5957 99.8065 12.0229C101.112 11.4504 102.517 11.164 104.02 11.164C105.809 11.164 107.383 11.4952 108.743 12.1572C110.103 12.8192 111.239 13.7228 112.152 14.8678C113.064 16.0127 113.753 17.3457 114.218 18.8663C114.683 20.3871 114.916 21.9885 114.916 23.6701ZM138.264 18.8933H139.337C139.337 15.8158 138.443 13.5795 136.654 12.1839C134.864 10.7884 132.431 10.0906 129.354 10.0906C127.636 10.0906 126.187 10.3055 125.006 10.7349C123.826 11.164 122.859 11.7188 122.108 12.3985C121.357 13.0782 120.82 13.8298 120.498 14.6529C120.176 15.476 120.014 16.2633 120.014 17.0146C120.014 18.5174 120.283 19.7161 120.82 20.6107C121.357 21.5053 122.197 22.2031 123.342 22.704C124.13 23.0616 125.024 23.3837 126.026 23.6704C127.028 23.9565 128.191 24.2606 129.515 24.5824C130.696 24.8692 131.859 25.1552 133.004 25.4413C134.149 25.7277 135.16 26.1123 136.036 26.5952C136.913 27.0784 137.629 27.6957 138.183 28.4472C138.738 29.1985 139.015 30.1827 139.015 31.3991C139.015 32.5801 138.738 33.582 138.183 34.4047C137.633 35.2235 136.909 35.9109 136.063 36.4178C135.204 36.9365 134.247 37.3121 133.192 37.5447C132.136 37.7773 131.107 37.8936 130.105 37.8936C126.849 37.8936 124.353 37.1691 122.618 35.7201C120.882 34.2707 120.015 31.9896 120.015 28.8763H118.941C118.941 32.3475 119.88 34.8879 121.759 36.4984C123.638 38.1085 126.42 38.9135 130.105 38.9135C131.286 38.9135 132.476 38.7792 133.675 38.5108C134.873 38.2425 135.947 37.8043 136.895 37.1958C137.835 36.5959 138.625 35.788 139.203 34.8345C139.793 33.868 140.089 32.6874 140.089 31.2918C140.089 29.9678 139.829 28.8944 139.31 28.0713C138.792 27.2485 138.112 26.5685 137.271 26.0318C136.43 25.4951 135.482 25.0747 134.426 24.7706C133.364 24.4647 132.3 24.1694 131.232 23.8847C129.919 23.54 128.604 23.2001 127.287 22.8651C126.16 22.5787 125.114 22.2388 124.148 21.8452C123.217 21.4515 122.475 20.8881 121.92 20.1545C121.365 19.421 121.088 18.3743 121.088 17.0146C121.088 16.7642 121.16 16.3168 121.303 15.6728C121.446 15.0285 121.786 14.3755 122.323 13.7135C122.859 13.0518 123.682 12.4613 124.792 11.9423C125.901 11.4237 127.422 11.164 129.354 11.164C130.678 11.164 131.885 11.3074 132.977 11.5934C134.068 11.8798 135.008 12.336 135.795 12.9623C136.582 13.5885 137.19 14.3845 137.62 15.3507C138.049 16.3171 138.264 17.4978 138.264 18.8933ZM163.115 18.8933H164.188C164.188 15.8158 163.294 13.5795 161.505 12.1839C159.715 10.7884 157.282 10.0906 154.205 10.0906C152.487 10.0906 151.038 10.3055 149.857 10.7349C148.676 11.164 147.71 11.7188 146.959 12.3985C146.207 13.0782 145.671 13.8298 145.349 14.6529C145.026 15.476 144.866 16.2633 144.866 17.0146C144.866 18.5174 145.134 19.7161 145.671 20.6107C146.207 21.5053 147.048 22.2031 148.193 22.704C148.981 23.0616 149.875 23.3837 150.877 23.6704C151.879 23.9565 153.042 24.2606 154.366 24.5824C155.547 24.8692 156.71 25.1552 157.855 25.4413C159 25.7277 160.01 26.1123 160.887 26.5952C161.764 27.0784 162.48 27.6957 163.034 28.4472C163.589 29.1985 163.866 30.1827 163.866 31.3991C163.866 32.5801 163.589 33.582 163.034 34.4047C162.484 35.2235 161.76 35.9109 160.914 36.4178C160.055 36.9365 159.098 37.3121 158.042 37.5447C156.987 37.7773 155.958 37.8936 154.956 37.8936C151.7 37.8936 149.204 37.1691 147.469 35.7201C145.733 34.2707 144.866 31.9896 144.866 28.8763H143.792C143.792 32.3475 144.731 34.8879 146.61 36.4984C148.488 38.1085 151.271 38.9135 154.956 38.9135C156.137 38.9135 157.327 38.7792 158.526 38.5108C159.724 38.2425 160.798 37.8043 161.746 37.1958C162.686 36.5959 163.476 35.788 164.054 34.8345C164.645 33.868 164.94 32.6874 164.94 31.2918C164.94 29.9678 164.68 28.8944 164.161 28.0713C163.643 27.2485 162.963 26.5685 162.122 26.0318C161.281 25.4951 160.333 25.0747 159.277 24.7706C158.216 24.4647 157.151 24.1694 156.083 23.8847C154.77 23.54 153.455 23.2001 152.138 22.8651C151.011 22.5787 149.965 22.2388 148.998 21.8452C148.068 21.4515 147.326 20.8881 146.771 20.1545C146.216 19.421 145.939 18.3743 145.939 17.0146C145.939 16.7642 146.011 16.3168 146.154 15.6728C146.297 15.0285 146.637 14.3755 147.173 13.7135C147.71 13.0518 148.533 12.4613 149.642 11.9423C150.752 11.4237 152.272 11.164 154.205 11.164C155.529 11.164 156.736 11.3074 157.828 11.5934C158.919 11.8798 159.858 12.336 160.646 12.9623C161.433 13.5885 162.041 14.3845 162.471 15.3507C162.9 16.3171 163.115 17.4978 163.115 18.8933H163.115Z" fill="#222222"/>
</svg>
