<svg width="47" height="48" viewBox="0 0 47 48" fill="none" xmlns="http://www.w3.org/2000/svg">
<path d="M46.5217 10.84C46.539 10.9038 46.5479 10.9697 46.5479 11.0358V21.3209C46.5479 21.5897 46.4043 21.8378 46.171 21.9715L37.5388 26.9418V36.7927C37.5388 36.9246 37.5042 37.0541 37.4384 37.1683C37.3726 37.2825 37.2779 37.3774 37.1639 37.4435L19.1443 47.8167C19.103 47.84 19.0581 47.8549 19.013 47.8711C18.9961 47.8766 18.9803 47.8869 18.9624 47.8917C18.8365 47.9248 18.7041 47.9248 18.5781 47.8917C18.5574 47.8862 18.5386 47.8747 18.519 47.8673C18.4777 47.8522 18.4346 47.8391 18.3954 47.8167L0.379351 37.4433C0.264867 37.3776 0.16974 37.2828 0.103565 37.1686C0.0373906 37.0544 0.00250965 36.9248 0.00244141 36.7927L0.00244141 5.93747C0.00244141 5.86984 0.011896 5.8042 0.0286232 5.74056C0.0342596 5.71893 0.0473505 5.69929 0.0549869 5.67766C0.0689869 5.63838 0.0822596 5.59802 0.102805 5.56147C0.116805 5.53711 0.13735 5.51747 0.15426 5.49493C0.175896 5.46493 0.195532 5.43402 0.220805 5.40766C0.242441 5.3862 0.270623 5.3702 0.294987 5.35147C0.32226 5.32893 0.346441 5.30456 0.377351 5.28675H0.37826L9.38662 0.100201C9.5007 0.0345518 9.63001 0 9.76162 0C9.89324 0 10.0225 0.0345518 10.1366 0.100201L19.145 5.28675H19.1468C19.1768 5.30566 19.2023 5.32893 19.2294 5.35056C19.2537 5.36929 19.281 5.3862 19.3024 5.40693C19.3288 5.43402 19.3475 5.46511 19.3699 5.49493C19.3859 5.51747 19.4075 5.53711 19.4206 5.56147C19.4421 5.59893 19.4543 5.63838 19.4694 5.67784C19.4768 5.69929 19.4899 5.71893 19.4955 5.74147C19.5128 5.80529 19.5217 5.87129 19.5219 5.93747V25.2091L27.0284 20.8867V11.0349C27.0284 10.9695 27.0379 10.9027 27.0548 10.84C27.0613 10.8175 27.0735 10.7978 27.081 10.7764C27.0961 10.7369 27.1092 10.6964 27.1297 10.66C27.1437 10.6357 27.1643 10.616 27.1804 10.5935C27.2028 10.5635 27.2215 10.5326 27.2477 10.5062C27.2695 10.4847 27.2966 10.4687 27.321 10.45C27.3492 10.4275 27.3735 10.4031 27.4035 10.3853H27.4044L36.4137 5.19875C36.5278 5.13301 36.6571 5.09841 36.7887 5.09841C36.9203 5.09841 37.0497 5.13301 37.1637 5.19875L46.1721 10.3853C46.2039 10.404 46.2283 10.4275 46.2564 10.4489C46.2797 10.4678 46.307 10.4847 46.3286 10.5053C46.3548 10.5326 46.3735 10.5635 46.3959 10.5935C46.413 10.616 46.4335 10.6357 46.4468 10.66C46.4683 10.6964 46.4804 10.7369 46.4953 10.7764C46.5039 10.7978 46.5161 10.8175 46.5217 10.84ZM45.0463 20.8869V12.3342L41.8937 14.1489L37.5386 16.6566V25.2093L45.0472 20.8869H45.0463ZM36.0379 36.3587V27.8L31.7539 30.2467L19.521 37.2286V45.8675L36.0379 36.3584V36.3587ZM1.50408 7.23566V36.3587L18.0192 45.8667V37.2295L9.39153 32.3466L9.38881 32.3447L9.38517 32.3429C9.35608 32.326 9.33153 32.3017 9.30444 32.2811C9.28081 32.2622 9.25371 32.2473 9.23317 32.2266L9.23135 32.2238C9.20699 32.2004 9.19008 32.1713 9.16953 32.1451C9.15062 32.1197 9.12826 32.0982 9.11317 32.072L9.11226 32.0691C9.09535 32.0411 9.08499 32.0073 9.07281 31.9755C9.06062 31.9473 9.04481 31.9209 9.03717 31.8911V31.8902C9.0279 31.8546 9.02608 31.8169 9.02226 31.7804C9.01862 31.7524 9.01099 31.7242 9.01099 31.696V11.5582L4.65662 9.04947L1.50408 7.23675V7.23566ZM9.76262 1.61693L2.25681 5.93747L9.76081 10.2578L17.2655 5.93638L9.76081 1.61693H9.76262ZM13.6659 28.5802L18.0201 26.0737V7.23566L14.8679 9.05056L10.5124 11.558V30.3958L13.6659 28.5802ZM36.7886 6.71547L29.2839 11.0358L36.7886 15.3564L44.2924 11.0349L36.7886 6.71547ZM36.0377 16.6566L31.6826 14.1489L28.5303 12.3342V20.8869L32.8844 23.3937L36.0379 25.2093V16.6566H36.0377ZM18.7692 35.9304L29.777 29.646L35.2795 26.5057L27.7803 22.188L19.1459 27.1589L11.2764 31.6895L18.7692 35.9304Z" fill="#FF2D20"/>
</svg>
