<svg width="237" height="48" viewBox="0 0 237 48" fill="none" xmlns="http://www.w3.org/2000/svg">
<path d="M198.252 0.0198462V7.61677H181.924V47.5846H173.759V7.61723H157.091V0.0198462H198.252ZM200.087 43.0537C200.662 43.0537 201.165 43.2605 201.591 43.6749C202.023 44.0889 202.238 44.5851 202.244 45.1629C202.243 45.5421 202.138 45.9137 201.94 46.2369C201.745 46.556 201.473 46.8204 201.149 47.0054C200.828 47.197 200.461 47.297 200.087 47.2943C199.489 47.2943 198.98 47.0871 198.555 46.6731C198.129 46.2586 197.918 45.7569 197.923 45.1629C197.918 44.5851 198.129 44.0889 198.555 43.6749C198.98 43.2605 199.489 43.0537 200.087 43.0537ZM38.2699 47.5846L8.16559 10.1668V47.5652H0.000976562V0H10.2061L48.2396 47.2288L48.2401 7.61723L48.2368 0.0198462H89.3968V7.61677H56.4042V19.8383H82.9371V27.4357H56.4042V39.9877H89.3973V47.5846H38.2699ZM115.563 27.3632L120.914 34.0154L109.95 47.6409H99.2354L115.563 27.3632ZM109.95 0.0396923L123.764 17.1951L137.534 0.0923077L148.219 0.0761539L129.113 23.8385L148.25 47.6045H137.534L99.2659 0.0396923H109.95ZM214.021 27.2566H217.639V41.1951C217.634 42.4758 217.357 43.5711 216.815 44.4928C216.267 45.4135 215.509 46.1169 214.536 46.6131C213.568 47.1032 212.434 47.3543 211.145 47.3543C209.966 47.3543 208.91 47.142 207.97 46.7275C207.029 46.3131 206.283 45.6918 205.735 44.874C205.181 44.0566 204.91 43.0371 204.91 41.8163H208.534C208.54 42.3503 208.661 42.8132 208.893 43.2009C209.122 43.5835 209.456 43.8919 209.856 44.0889C210.271 44.2966 210.747 44.4 211.283 44.4C211.864 44.4 212.362 44.28 212.766 44.0345C213.169 43.7945 213.479 43.4349 213.695 42.9554C213.905 42.4809 214.016 41.8925 214.021 41.1946V27.2566ZM232.525 32.7074C232.437 31.8628 232.049 31.2028 231.374 30.7343C230.694 30.2598 229.814 30.0258 228.735 30.0258C227.978 30.0258 227.325 30.1403 226.783 30.3637C226.241 30.5926 225.821 30.8977 225.533 31.2849C225.246 31.6717 225.102 32.1134 225.09 32.6095C225.09 33.0235 225.19 33.3835 225.383 33.6831C225.584 33.9971 225.855 34.2603 226.174 34.452C226.521 34.6703 226.893 34.8477 227.281 34.9805C227.69 35.1222 228.1 35.2422 228.509 35.3405L230.395 35.8038C231.153 35.9783 231.889 36.2123 232.591 36.5123C233.293 36.8068 233.93 37.1829 234.488 37.6352C235.047 38.0875 235.49 38.6326 235.816 39.2705C236.143 39.9083 236.309 40.6551 236.309 41.5163C236.309 42.6771 236.01 43.6966 235.407 44.5795C234.804 45.4574 233.935 46.1442 232.796 46.6403C231.662 47.1309 230.29 47.3815 228.675 47.3815C227.115 47.3815 225.754 47.1415 224.609 46.662C223.459 46.188 222.562 45.4897 221.915 44.574C221.268 43.6583 220.919 42.5409 220.869 41.2274H224.455C224.504 41.9142 224.725 42.4865 225.102 42.9498C225.483 43.4077 225.981 43.7455 226.59 43.9745C227.203 44.1983 227.889 44.3128 228.647 44.3128C229.438 44.3128 230.135 44.1928 230.738 43.9583C231.336 43.7238 231.805 43.3971 232.143 42.9715C232.486 42.5515 232.658 42.0558 232.663 41.4891C232.658 40.9712 232.502 40.5406 232.204 40.2023C231.9 39.8645 231.479 39.5811 230.942 39.3522C230.401 39.1232 229.77 38.916 229.051 38.7365L226.761 38.1586C225.107 37.7386 223.796 37.1012 222.839 36.2451C221.876 35.3894 221.401 34.2558 221.401 32.8329C221.401 31.6666 221.721 30.6415 222.369 29.7637C223.01 28.8868 223.89 28.2051 225.002 27.72C226.119 27.2294 227.381 26.9894 228.785 26.9894C230.213 26.9894 231.463 27.2294 232.542 27.72C233.62 28.2051 234.467 28.8808 235.08 29.742C235.694 30.6037 236.016 31.59 236.032 32.7074H232.525Z" fill="black"/>
</svg>
