<svg width="92" height="48" viewBox="0 0 92 48" fill="none" xmlns="http://www.w3.org/2000/svg">
<path d="M45.515 47.8578C70.6501 47.8578 91.0261 37.1445 91.0261 23.9289C91.0261 10.7133 70.6501 0 45.515 0C20.3799 0 0.00390625 10.7133 0.00390625 23.9289C0.00390625 37.1445 20.3799 47.8578 45.515 47.8578Z" fill="url(#paint0_radial_2_19)"/>
<path d="M45.5151 46.08C69.6683 46.08 89.2484 36.1626 89.2484 23.9289C89.2484 11.6952 69.6683 1.77777 45.5151 1.77777C21.3618 1.77777 1.78174 11.6952 1.78174 23.9289C1.78174 36.1626 21.3618 46.08 45.5151 46.08Z" fill="#6181B6"/>
<path d="M54.3682 31.1111L56.5371 19.9467C57.0349 17.4222 56.6082 15.5378 55.3282 14.3644C54.0838 13.2267 51.9504 12.6578 48.8215 12.6578H45.0526L46.1193 7.11112C46.1549 6.89778 46.1193 6.68445 45.9771 6.50667C45.8349 6.32889 45.6571 6.25778 45.4438 6.25778H40.2526C39.8971 6.25778 39.6126 6.50667 39.5415 6.82667L37.2304 18.6667C37.0171 17.3156 36.5193 16.1778 35.666 15.2533C34.1371 13.5111 31.7549 12.6222 28.5193 12.6222H18.5282C18.1726 12.6222 17.8882 12.8711 17.8171 13.1911L13.1593 37.2267C13.1238 37.44 13.1593 37.6533 13.3015 37.8311C13.4438 38.0089 13.6215 38.08 13.8349 38.08H19.0615C19.4171 38.08 19.7015 37.8311 19.7726 37.5111L20.9104 31.7156H24.786C26.8126 31.7156 28.5549 31.5022 29.8704 31.0756C31.2571 30.6133 32.5015 29.8667 33.6038 28.8356C34.4926 28.0178 35.2393 27.0933 35.8082 26.0978L34.8838 30.8978C34.8482 31.1111 34.8838 31.3244 35.026 31.5022C35.1682 31.68 35.346 31.7511 35.5593 31.7511H40.7504C41.106 31.7511 41.3904 31.5022 41.4615 31.1822L44.0215 18.0267H47.5771C49.106 18.0267 49.5326 18.3111 49.6749 18.4533C49.7815 18.56 49.9949 18.9867 49.746 20.3022L47.6838 30.9333C47.6482 31.1467 47.6838 31.36 47.826 31.5378C47.9682 31.7156 48.146 31.7867 48.3593 31.7867H53.6926C54.0126 31.68 54.2971 31.4311 54.3682 31.1111ZM30.3326 21.8667C30.0126 23.5378 29.4082 24.7467 28.5193 25.4222C27.6304 26.0978 26.1726 26.4533 24.2526 26.4533H21.9415L23.6126 17.8489H26.5993C28.8038 17.8489 29.6926 18.3111 30.0482 18.7022C30.5104 19.2711 30.6171 20.3733 30.3326 21.8667ZM76.5549 15.2533C75.026 13.5111 72.6438 12.6222 69.4082 12.6222H59.346C58.9904 12.6222 58.706 12.8711 58.6349 13.1911L53.9771 37.1911C53.9415 37.4044 53.9771 37.6178 54.1193 37.7956C54.2615 37.9733 54.4393 38.0445 54.6526 38.0445H59.8793C60.2349 38.0445 60.5193 37.7956 60.5904 37.4756L61.7282 31.68H65.6038C67.6304 31.68 69.3726 31.4667 70.6882 31.04C72.0749 30.5778 73.3193 29.8311 74.4215 28.8C75.346 27.9467 76.1282 26.9867 76.6971 25.9556C77.266 24.9244 77.6926 23.7867 77.9415 22.5422C78.546 19.4489 78.0838 17.0311 76.5549 15.2533ZM71.1149 21.8667C70.7949 23.5378 70.1904 24.7467 69.3015 25.4222C68.4126 26.0978 66.9549 26.4533 65.0349 26.4533H62.7238L64.3949 17.8489H67.3815C69.586 17.8489 70.4749 18.3111 70.8304 18.7022C71.3282 19.2711 71.4349 20.3733 71.1149 21.8667Z" fill="white"/>
<path d="M26.5995 17.1378C28.5906 17.1378 29.9062 17.4933 30.5817 18.24C31.2573 18.9867 31.3995 20.2311 31.0439 22.0089C30.6884 23.8578 29.9773 25.2089 28.9462 25.9911C27.9151 26.7733 26.3506 27.1645 24.2528 27.1645H21.0884L23.0439 17.1378H26.5995ZM13.8706 37.3333H19.0973L20.3417 30.9689H24.8217C26.8128 30.9689 28.4128 30.7556 29.6928 30.3289C30.9728 29.9022 32.1106 29.2267 33.1773 28.2311C34.0662 27.4133 34.7773 26.5245 35.3106 25.5645C35.8439 24.6045 36.2351 23.5378 36.4484 22.3645C37.0173 19.52 36.5906 17.3156 35.2039 15.7156C33.8173 14.1156 31.6128 13.3333 28.5906 13.3333H18.5284L13.8706 37.3333ZM40.2884 6.9689H45.4795L44.2351 13.3333H48.8573C51.7728 13.3333 53.7639 13.8311 54.8662 14.8622C55.9684 15.8933 56.2884 17.5289 55.8617 19.8045L53.6928 30.9689H48.4306L50.4928 20.3378C50.7417 19.1289 50.6351 18.3111 50.2439 17.8845C49.8528 17.4578 48.9639 17.2089 47.6484 17.2089H43.4884L40.8217 30.9689H35.6306L40.2884 6.9689ZM67.3817 17.1378C69.3728 17.1378 70.6884 17.4933 71.3639 18.24C72.0395 18.9867 72.1817 20.2311 71.8262 22.0089C71.4706 23.8578 70.7595 25.2089 69.7284 25.9911C68.6973 26.7733 67.1328 27.1645 65.035 27.1645H61.8706L63.8262 17.1378H67.3817ZM54.6528 37.3333H59.8795L61.1239 30.9689H65.6039C67.5951 30.9689 69.195 30.7556 70.4751 30.3289C71.7551 29.9022 72.8928 29.2267 73.9595 28.2311C74.8484 27.4133 75.5595 26.5245 76.0928 25.5645C76.6262 24.6045 77.0173 23.5378 77.2306 22.3645C77.7995 19.52 77.3728 17.3156 75.9862 15.7156C74.5995 14.1156 72.3951 13.3333 69.3728 13.3333H59.3106L54.6528 37.3333Z" fill="#000004"/>
<defs>
<radialGradient id="paint0_radial_2_19" cx="0" cy="0" r="1" gradientUnits="userSpaceOnUse" gradientTransform="translate(27.3289 8.41512) scale(59.7673 59.7673)">
<stop stop-color="white"/>
<stop offset="0.5" stop-color="#4C6B97"/>
<stop offset="1" stop-color="#231F20"/>
</radialGradient>
</defs>
</svg>
