<svg width="54" height="48" viewBox="0 0 54 48" fill="none" xmlns="http://www.w3.org/2000/svg">
<path d="M44.3147 15.5419C43.7411 15.3451 43.1627 15.1628 42.5799 14.9951C42.6778 14.5951 42.7679 14.2 42.8479 13.8118C44.1612 7.43681 43.3027 2.30102 40.3702 0.610069C37.5587 -1.01098 32.9605 0.679332 28.3168 4.72081C27.8591 5.11982 27.4116 5.53034 26.9747 5.95196C26.6822 5.6716 26.3845 5.39667 26.0818 5.12733C21.2149 0.806069 16.3365 -1.01519 13.4073 0.680595C10.5982 2.3067 9.76644 7.1347 10.9488 13.1764C11.0664 13.7748 11.1992 14.37 11.3471 14.9616C10.6565 15.1579 9.99023 15.3667 9.35255 15.589C3.64644 17.5785 0.00244141 20.6962 0.00244141 23.9301C0.00244141 27.2701 3.91444 30.6202 9.8576 32.6515C10.3394 32.8156 10.8253 32.9675 11.3147 33.1073C11.1557 33.7445 11.0146 34.386 10.8915 35.0311C9.76434 40.968 10.6445 45.6819 13.446 47.2976C16.3395 48.9663 21.1959 47.2513 25.9245 43.1176C26.308 42.7816 26.683 42.436 27.0492 42.0812C27.5223 42.5378 28.0082 42.981 28.506 43.4105C33.0867 47.352 37.6104 48.9435 40.4092 47.3233C43.2999 45.6499 44.2395 40.5859 43.0197 34.4248C42.9236 33.9421 42.8159 33.4618 42.6965 32.9844C43.0376 32.8833 43.3723 32.7793 43.6987 32.6711C49.8772 30.6242 53.8972 27.3147 53.8972 23.9301C53.8972 20.6844 50.1355 17.5456 44.3147 15.5419ZM42.9747 30.4859C42.6799 30.5833 42.3776 30.6774 42.0694 30.769C41.3873 28.6096 40.4669 26.3136 39.3403 23.9412C40.4153 21.6254 41.3003 19.3587 41.9633 17.2134C42.5147 17.373 43.0496 17.5412 43.5654 17.7187C48.5528 19.4358 51.5949 21.9741 51.5949 23.9301C51.5949 26.0134 48.3094 28.7181 42.9747 30.4859ZM40.7612 34.872C41.3005 37.5962 41.3774 40.0593 41.0201 41.985C40.6993 43.7153 40.0538 44.8688 39.2555 45.3309C37.5572 46.3141 33.925 45.0362 30.0077 41.6652C29.5446 41.2659 29.0927 40.8538 28.6525 40.4294C30.1713 38.7686 31.689 36.8379 33.1702 34.6934C35.7757 34.4623 38.2372 34.0842 40.4694 33.5682C40.5769 34.0004 40.6742 34.4351 40.7612 34.872ZM18.3763 45.161C16.717 45.7469 15.3953 45.7638 14.5963 45.3031C12.8963 44.3227 12.1896 40.5377 13.1536 35.4606C13.2682 34.8607 13.3994 34.264 13.5471 33.6713C15.7547 34.1598 18.1982 34.5109 20.8098 34.7227C22.3012 36.821 23.8627 38.7496 25.4363 40.4385C25.1019 40.7621 24.7596 41.0774 24.4096 41.3842C22.3184 43.212 20.2231 44.5088 18.3763 45.161ZM10.6024 30.473C7.97444 29.5747 5.80413 28.4073 4.31655 27.1334C2.9797 25.9888 2.30497 24.8522 2.30497 23.9301C2.30497 21.9675 5.23065 19.4644 10.1104 17.7631C10.7027 17.5568 11.3224 17.3621 11.9656 17.1793C12.6401 19.373 13.5248 21.6667 14.5923 23.9861C13.5109 26.3398 12.6136 28.6701 11.9325 30.8896C11.4858 30.7617 11.0423 30.6228 10.6024 30.473ZM13.2083 12.7341C12.1955 7.55786 12.8681 3.65323 14.561 2.67323C16.3639 1.62944 20.3509 3.11765 24.5532 6.84902C24.8272 7.09289 25.0968 7.3417 25.3618 7.59533C23.7959 9.2768 22.2488 11.1911 20.7707 13.277C18.2359 13.512 15.8096 13.8892 13.5789 14.3947C13.4414 13.8444 13.3179 13.2906 13.2083 12.7341ZM36.4561 18.4747C35.9292 17.5646 35.3828 16.6659 34.8172 15.7793C36.5368 15.9968 38.1843 16.2854 39.7315 16.6383C39.2671 18.1271 38.6881 19.6835 38.0067 21.2793C37.5085 20.3342 36.9916 19.3992 36.4561 18.4747ZM26.9757 9.24081C28.0376 10.3913 29.1012 11.6758 30.1473 13.0694C28.0252 12.9692 25.8995 12.9688 23.7774 13.0682C24.8245 11.6873 25.8972 10.4046 26.9757 9.24081ZM17.4344 18.4905C16.9057 19.4075 16.3984 20.3367 15.913 21.2774C15.2427 19.6873 14.669 18.1238 14.2005 16.6139C15.7382 16.2699 17.378 15.9886 19.0867 15.7751C18.5147 16.6671 17.9639 17.5726 17.4344 18.4905ZM19.1357 32.2488C17.3704 32.0518 15.706 31.785 14.1688 31.4503C14.6445 29.9134 15.2309 28.3166 15.9157 26.6924C16.403 27.6338 16.9124 28.5636 17.4435 29.481C17.9896 30.4242 18.5551 31.348 19.1357 32.2488ZM27.0393 38.7814C25.9479 37.6042 24.8595 36.3017 23.7965 34.9008C24.8285 34.9412 25.8805 34.9619 26.9498 34.9619C28.0483 34.9619 29.1342 34.9372 30.2031 34.8896C29.1536 36.3158 28.094 37.6202 27.0393 38.7814ZM38.0283 26.6094C38.7488 28.2515 39.3559 29.84 39.838 31.3505C38.2755 31.7071 36.5883 31.9943 34.8107 32.2075C35.3803 31.3045 35.9319 30.3902 36.4652 29.4652C37.0074 28.525 37.5285 27.5728 38.0283 26.6094ZM34.4709 28.3149C33.6545 29.7331 32.7922 31.1244 31.8854 32.4865C30.2428 32.6028 28.5965 32.6606 26.9498 32.6598C25.2725 32.6598 23.6412 32.6075 22.0702 32.5056C21.1398 31.1467 20.261 29.753 19.4359 28.3275C18.6147 26.9097 17.8478 25.4611 17.1365 23.985C17.846 22.5086 18.6108 21.0593 19.4292 19.6404L19.429 19.6406C20.2471 18.2213 21.1188 16.8335 22.0422 15.4804C23.645 15.3591 25.2885 15.296 26.9496 15.296C28.6182 15.296 30.2641 15.3598 31.8664 15.4819C32.7806 16.833 33.6467 18.216 34.4633 19.6282C35.2844 21.044 36.0593 22.4862 36.7867 23.9524C36.0668 25.4336 35.2943 26.8887 34.4709 28.3149ZM39.2203 2.60459C41.025 3.64544 41.7269 7.8427 40.593 13.3469C40.5205 13.6981 40.4393 14.0558 40.3509 14.4185C38.1147 13.9023 35.6867 13.5185 33.1445 13.28C31.6637 11.1711 30.1292 9.25386 28.5888 7.59407C28.9925 7.20491 29.4058 6.82585 29.8283 6.45723C33.8073 2.9947 37.526 1.62754 39.2203 2.60459ZM26.9498 19.1174C29.6077 19.1174 31.7624 21.2722 31.7624 23.9301C31.7624 26.588 29.6077 28.7427 26.9498 28.7427C24.2919 28.7427 22.1372 26.588 22.1372 23.9301C22.1372 21.2722 24.2919 19.1174 26.9498 19.1174Z" fill="#00D8FF"/>
</svg>
