<svg width="80" height="48" viewBox="0 0 80 48" fill="none" xmlns="http://www.w3.org/2000/svg">
<path d="M39.9 0C29.2612 0 22.6116 5.31958 19.952 15.9584C23.9416 10.6389 28.596 8.64405 33.9156 9.97403C36.9505 10.7327 39.1199 12.9348 41.5211 15.3718C45.4328 19.3424 49.9597 23.9377 59.8481 23.9377C70.4869 23.9377 77.1365 18.6181 79.7961 7.97922C75.8065 13.2988 71.1521 15.2936 65.8325 13.9636C62.7976 13.205 60.6282 11.0029 58.227 8.56582C54.3153 4.59522 49.7883 0 39.9 0ZM19.952 23.9377C9.3131 23.9377 2.66354 29.2572 0.00390625 39.8961C3.99352 34.5765 8.64796 32.5817 13.9675 33.9117C17.0025 34.6703 19.1718 36.8724 21.573 39.3095C25.4847 43.2801 30.0117 47.8753 39.9 47.8753C50.5389 47.8753 57.1884 42.5557 59.8481 31.9169C55.8585 37.2365 51.204 39.2313 45.8844 37.9013C42.8495 37.1426 40.6802 34.9406 38.2789 32.5035C34.3672 28.5329 29.8403 23.9377 19.952 23.9377Z" fill="url(#paint0_linear_2_28)"/>
<defs>
<linearGradient id="paint0_linear_2_28" x1="-221.659" y1="1532.01" x2="6669.7" y2="5505.45" gradientUnits="userSpaceOnUse">
<stop stop-color="#2298BD"/>
<stop offset="1" stop-color="#0ED7B5"/>
</linearGradient>
</defs>
</svg>
