<svg width="49" height="48" viewBox="0 0 49 48" fill="none" xmlns="http://www.w3.org/2000/svg">
<mask id="mask0_2_66" style="mask-type:luminance" maskUnits="userSpaceOnUse" x="0" y="0" width="49" height="48">
<path d="M34.1732 47.7364C34.5566 47.8859 34.9667 47.9549 35.378 47.9391C35.7893 47.9233 36.1929 47.823 36.5637 47.6445L46.4852 42.8706C46.9962 42.6246 47.4273 42.2393 47.729 41.7591C48.0307 41.2789 48.1908 40.7233 48.1907 40.1562V7.78526C48.1907 7.21817 48.0307 6.66257 47.729 6.1824C47.4273 5.70223 46.9961 5.31699 46.4852 5.07099L36.5639 0.296883C36.0033 0.0271203 35.3727 -0.0617012 34.7594 0.0427132C34.1461 0.147127 33.5804 0.439613 33.1406 0.879687L14.1472 18.2079L5.87377 11.9278C5.50058 11.6445 5.03999 11.5008 4.57192 11.5216C4.10384 11.5425 3.65783 11.7265 3.31125 12.0418L0.657835 14.4556C-0.217125 15.2513 -0.21807 16.6278 0.655568 17.4249L7.83043 23.9707L0.655568 30.5163C-0.21807 31.3136 -0.217125 32.6899 0.657835 33.4859L3.31125 35.8995C3.65781 36.2148 4.10381 36.3988 4.57188 36.4197C5.03995 36.4405 5.50056 36.2969 5.87377 36.0136L14.1472 29.7334L33.1406 47.0615C33.4343 47.3557 33.7859 47.5855 34.1732 47.7364ZM36.1506 13.0311L21.7389 23.9707L36.1506 34.9102V13.0311Z" fill="#0065A9"/>
</mask>
<g mask="url(#mask0_2_66)">
<path d="M46.5146 5.07836L36.5854 0.29764C36.0247 0.0276593 35.3939 -0.0613514 34.7803 0.0429256C34.1667 0.147203 33.6007 0.439611 33.1606 0.879688L0.655922 30.5163C-0.218283 31.3136 -0.217149 32.6899 0.65819 33.4859L3.31331 35.8995C3.66017 36.2149 4.10645 36.3989 4.5748 36.4198C5.04314 36.4406 5.50402 36.2969 5.87753 36.0136L45.0206 6.31862C46.3338 5.32252 48.22 6.25909 48.22 7.90734V7.79207C48.2199 7.22508 48.0599 6.66961 47.7582 6.18955C47.4565 5.70949 47.0255 5.32433 46.5146 5.07836Z" fill="#0065A9"/>
</g>
<mask id="mask1_2_66" style="mask-type:luminance" maskUnits="userSpaceOnUse" x="0" y="0" width="49" height="48">
<path d="M34.1732 47.7364C34.5566 47.8859 34.9667 47.9549 35.378 47.9391C35.7893 47.9233 36.1929 47.823 36.5637 47.6445L46.4852 42.8706C46.9962 42.6246 47.4273 42.2393 47.729 41.7591C48.0307 41.2789 48.1908 40.7233 48.1907 40.1562V7.78526C48.1907 7.21817 48.0307 6.66257 47.729 6.1824C47.4273 5.70223 46.9961 5.31699 46.4852 5.07099L36.5639 0.296883C36.0033 0.0271203 35.3727 -0.0617012 34.7594 0.0427132C34.1461 0.147127 33.5804 0.439613 33.1406 0.879687L14.1472 18.2079L5.87377 11.9278C5.50058 11.6445 5.03999 11.5008 4.57192 11.5216C4.10384 11.5425 3.65783 11.7265 3.31125 12.0418L0.657835 14.4556C-0.217125 15.2513 -0.21807 16.6278 0.655568 17.4249L7.83043 23.9707L0.655568 30.5163C-0.21807 31.3136 -0.217125 32.6899 0.657835 33.4859L3.31125 35.8995C3.65781 36.2148 4.10381 36.3988 4.57188 36.4197C5.03995 36.4405 5.50056 36.2969 5.87377 36.0136L14.1472 29.7334L33.1406 47.0615C33.4343 47.3557 33.7859 47.5855 34.1732 47.7364ZM36.1506 13.0311L21.7389 23.9707L36.1506 34.9102V13.0311Z" fill="#007ACC"/>
</mask>
<g mask="url(#mask1_2_66)">
<path d="M46.5146 42.8629L36.5854 47.6436C36.0247 47.9135 35.3939 48.0025 34.7803 47.8982C34.1667 47.7939 33.6007 47.5016 33.1606 47.0615L0.655922 17.4249C-0.218283 16.6278 -0.217149 15.2513 0.65819 14.4555L3.31331 12.0418C3.66019 11.7264 4.10649 11.5424 4.57483 11.5215C5.04318 11.5007 5.50404 11.6445 5.87753 11.9278L45.0206 41.6226C46.3338 42.6187 48.22 41.6821 48.22 40.0337V40.1492C48.2199 40.7161 48.0599 41.2716 47.7582 41.7516C47.4565 42.2317 47.0255 42.6169 46.5146 42.8629Z" fill="#007ACC"/>
</g>
<mask id="mask2_2_66" style="mask-type:luminance" maskUnits="userSpaceOnUse" x="0" y="0" width="49" height="48">
<path d="M34.1732 47.7364C34.5566 47.8859 34.9667 47.9549 35.378 47.9391C35.7893 47.9233 36.1929 47.823 36.5637 47.6445L46.4852 42.8706C46.9962 42.6246 47.4273 42.2393 47.729 41.7591C48.0307 41.2789 48.1908 40.7233 48.1907 40.1562V7.78526C48.1907 7.21817 48.0307 6.66257 47.729 6.1824C47.4273 5.70223 46.9961 5.31699 46.4852 5.07099L36.5639 0.296883C36.0033 0.0271203 35.3727 -0.0617012 34.7594 0.0427132C34.1461 0.147127 33.5804 0.439613 33.1406 0.879687L14.1472 18.2079L5.87377 11.9278C5.50058 11.6445 5.03999 11.5008 4.57192 11.5216C4.10384 11.5425 3.65783 11.7265 3.31125 12.0418L0.657835 14.4556C-0.217125 15.2513 -0.21807 16.6278 0.655568 17.4249L7.83043 23.9707L0.655568 30.5163C-0.21807 31.3136 -0.217125 32.6899 0.657835 33.4859L3.31125 35.8995C3.65781 36.2148 4.10381 36.3988 4.57188 36.4197C5.03995 36.4405 5.50056 36.2969 5.87377 36.0136L14.1472 29.7334L33.1406 47.0615C33.4343 47.3557 33.7859 47.5855 34.1732 47.7364ZM36.1506 13.0311L21.7389 23.9707L36.1506 34.9102V13.0311Z" fill="#1F9CF0"/>
</mask>
<g mask="url(#mask2_2_66)">
<path d="M36.5541 47.6474C35.9932 47.9172 35.3623 48.006 34.7487 47.9016C34.1351 47.7973 33.5691 47.5048 33.1289 47.0647C34.2403 48.1759 36.1408 47.3888 36.1408 45.8169V2.13032C36.1408 0.558416 34.2403 -0.22867 33.1289 0.8827C33.569 0.442588 34.1351 0.150105 34.7487 0.0456981C35.3623 -0.0587091 35.9932 0.0301184 36.5541 0.299897L46.4816 5.07401C46.9928 5.31983 47.4241 5.70501 47.726 6.1852C48.0279 6.66539 48.1881 7.22107 48.1881 7.78827V40.1594C48.1881 41.3168 47.5247 42.3721 46.4816 42.8736L36.5541 47.6474Z" fill="#1F9CF0"/>
</g>
<mask id="mask3_2_66" style="mask-type:luminance" maskUnits="userSpaceOnUse" x="0" y="0" width="49" height="48">
<path d="M34.1732 47.7364C34.5566 47.8859 34.9667 47.9549 35.378 47.9391C35.7893 47.9233 36.1929 47.823 36.5637 47.6445L46.4852 42.8706C46.9962 42.6246 47.4273 42.2393 47.729 41.7591C48.0307 41.2789 48.1908 40.7233 48.1907 40.1562V7.78526C48.1907 7.21817 48.0307 6.66257 47.729 6.1824C47.4273 5.70223 46.9961 5.31699 46.4852 5.07099L36.5639 0.296883C36.0033 0.0271203 35.3727 -0.0617012 34.7594 0.0427132C34.1461 0.147127 33.5804 0.439613 33.1406 0.879687L14.1472 18.2079L5.87377 11.9278C5.50058 11.6445 5.03999 11.5008 4.57192 11.5216C4.10384 11.5425 3.65783 11.7265 3.31125 12.0418L0.657835 14.4556C-0.217125 15.2513 -0.21807 16.6278 0.655568 17.4249L7.83043 23.9707L0.655568 30.5163C-0.21807 31.3136 -0.217125 32.6899 0.657835 33.4859L3.31125 35.8995C3.65781 36.2148 4.10381 36.3988 4.57188 36.4197C5.03995 36.4405 5.50056 36.2969 5.87377 36.0136L14.1472 29.7334L33.1406 47.0615C33.4343 47.3557 33.7859 47.5855 34.1732 47.7364ZM36.1506 13.0311L21.7389 23.9707L36.1506 34.9102V13.0311Z" fill="url(#paint0_linear_2_66)" fill-opacity="0.25"/>
</mask>
<g mask="url(#mask3_2_66)">
<path d="M34.1732 47.7364C34.5566 47.8859 34.9667 47.9548 35.378 47.939C35.7893 47.9232 36.1929 47.823 36.5637 47.6445L46.485 42.8704C46.996 42.6245 47.4272 42.2392 47.7289 41.759C48.0307 41.2789 48.1908 40.7233 48.1907 40.1561V7.78524C48.1907 7.21814 48.0307 6.66255 47.729 6.18238C47.4273 5.70221 46.9961 5.31696 46.4852 5.07097L36.5635 0.296669C36.0029 0.0269497 35.3724 -0.0618482 34.7591 0.0425652C34.1458 0.146979 33.5802 0.43944 33.1404 0.879472L14.1472 18.2079L5.87377 11.9278C5.50058 11.6445 5.03999 11.5008 4.57192 11.5216C4.10384 11.5424 3.65783 11.7264 3.31125 12.0417L0.657835 14.4555C-0.217125 15.2513 -0.21807 16.6278 0.655568 17.4249L7.83043 23.9707L0.655568 30.5163C-0.21807 31.3136 -0.217125 32.6899 0.657835 33.4858L3.31125 35.8994C3.65781 36.2148 4.10381 36.3988 4.57188 36.4197C5.03995 36.4405 5.50056 36.2968 5.87377 36.0136L14.1472 29.7333L33.1404 47.0615C33.4341 47.3557 33.7858 47.5855 34.1732 47.7364ZM36.1506 13.0308L21.7389 23.9707L36.1506 34.9101V13.0308Z" fill="url(#paint1_linear_2_66)" fill-opacity="0.25"/>
</g>
<defs>
<linearGradient id="paint0_linear_2_66" x1="2409.49" y1="0.000152588" x2="2409.49" y2="4794.12" gradientUnits="userSpaceOnUse">
<stop stop-color="white"/>
<stop offset="1" stop-color="white" stop-opacity="0"/>
</linearGradient>
<linearGradient id="paint1_linear_2_66" x1="2409.49" y1="0" x2="2409.49" y2="4794.13" gradientUnits="userSpaceOnUse">
<stop stop-color="white"/>
<stop offset="1" stop-color="white" stop-opacity="0"/>
</linearGradient>
</defs>
</svg>
